<mxfile host="app.diagrams.net" modified="2023-09-04T08:14:53.003Z" agent="Mozilla/5.0 (Macintosh; Intel Mac OS X 10_15_7) AppleWebKit/537.36 (KHTML, like Gecko) Chrome/116.0.0.0 Safari/537.36" version="21.7.2" etag="iWGAruyatgiNlbil9I0n" type="github">
  <diagram name="Page-1" id="57DOFAJnUW7NaViCnWp6">
    <mxGraphModel>
      <root>
        <mxCell id="0" />
        <mxCell id="1" parent="0" />
      </root>
    </mxGraphModel>
  </diagram>
</mxfile>
